# xmcd
#
# Track frame offsets:
#	150
#	22547
#	40407
#	56067
#	78397
#
# Disc length: 1281 seconds
#
# Revision: 1
# Processed by: cddbd v1.5PL3 Copyright (c) Steve Scherf et al.
# Submitted via: CDex 1.50Beta5
#
DISCID=3104ff05
DTITLE=西端さおり - Hearts
DYEAR=2001
DGENRE=Pop
TTITLE0=Hearts
TTITLE1=そうだ髪を切ってみよう
TTITLE2=no pain no gain(Remix by Thank Mix)
TTITLE3=Hearts(Instrumental)
TTITLE4=そうだ髪を切ってみよう(Instrumental)
EXTD=
EXTT0=
EXTT1=
EXTT2=
EXTT3=
EXTT4=
PLAYORDER=
